<?xml version="1.0" encoding="UTF-8" standalone="no"?>
<!-- Created with Inkscape (http://www.inkscape.org/) -->

<svg
   width="57mm"
   height="57mm"
   viewBox="0 0 57 56.999999"
   version="1.1"
   id="svg1"
   xmlns="http://www.w3.org/2000/svg"
   xmlns:svg="http://www.w3.org/2000/svg">
  <defs
     id="defs1" />
  <g
     id="layer1">
    <path
       style="fill:#3940ff;stroke-width:0.197073;fill-opacity:1"
       d="m 22.771151,32.660223 c -1.03343,-0.30133 -1.970819,-0.788642 -2.744738,-1.426876 -0.84067,-0.693282 -4.00871,-4.29135 -4.644269,-5.274686 -1.359991,-2.104168 -1.497533,-4.814801 -0.36612,-7.215393 0.475358,-1.008599 1.720701,-2.318184 4.351362,-4.575832 2.354686,-2.020801 3.538975,-2.547828 5.726624,-2.548426 2.224556,-6.05e-4 3.848854,0.72246 5.529057,2.461305 1.467102,1.518306 3.447999,3.84387 3.876714,4.551248 1.340011,2.211009 1.420927,4.943674 0.214081,7.229819 -0.589145,1.116028 -1.257723,1.839506 -3.657405,3.957738 -2.049541,1.809159 -3.187654,2.52784 -4.575675,2.889369 -1.019885,0.265646 -2.708416,0.243681 -3.709631,-0.04822 z"
       id="path3" />
    <path
       style="fill:#58afff;stroke-width:0.197073;fill-opacity:1"
       d="m 34.156574,44.524138 c -2.509801,-0.545349 -4.679321,-2.721355 -5.199309,-5.214859 -1.126775,-5.403238 4.568379,-9.867956 9.506313,-7.452476 2.330606,1.140055 3.780537,3.44283 3.798104,6.032114 0.02222,3.275438 -2.161009,5.94788 -5.420644,6.635287 -1.118014,0.235771 -1.599125,0.235763 -2.684464,-6.6e-5 z"
       id="path2" />
  </g>
</svg>
